<?xml version="1.0" encoding="UTF-8"?>
<svg id="Layer_1" xmlns="http://www.w3.org/2000/svg" version="1.1" viewBox="126 382 1624 316">
  <!-- Generator: Adobe Illustrator 30.4.0, SVG Export Plug-In . SVG Version: 2.1.4 Build 226)  -->
  <defs>
    <style>
      .st0 {
        fill: #00bcf1;
      }

      .st1 {
        fill: #ffec03;
      }

      .st2 {
        fill: #ffffff;
      }

      .st3 {
        fill: #eb008b;
      }
    </style>
  </defs>
  <g>
    <g>
      <g>
        <path class="st2" d="M364.54,382.07c15.82,0,28.21,12.73,28.21,28.55s-12.38,27.86-28.21,27.86-28.21-12.73-28.21-27.86,12.73-28.55,28.21-28.55ZM341.83,631.19v-169.25h45.75v169.25h-45.75Z"/>
        <path class="st2" d="M504.1,631.19h-45.75v-169.25h44.38v20.98c10.32-17.54,30.62-25.46,48.85-25.46,41.97,0,61.23,29.93,61.23,67.08v106.64h-45.75v-98.73c0-18.92-9.29-33.71-31.3-33.71-19.95,0-31.65,15.48-31.65,35.09v97.35Z"/>
        <path class="st2" d="M893.31,631.19v-244.99h45.07v94.31c7.57-12.04,26.15-23.05,51.26-23.05,49.54,0,78.09,38.19,78.09,88.41s-31.65,89.44-79.81,89.44c-23.39,0-41.28-10.32-50.23-24.77v20.64h-44.38ZM980,498.4c-23.05,0-42.31,16.86-42.31,47.82s19.27,48.16,42.31,48.16,41.97-17.2,41.97-48.16-18.58-47.82-41.97-47.82Z"/>
        <path class="st2" d="M1294.61,546.56c0,51.95-38.19,89.79-88.76,89.79s-88.76-37.84-88.76-89.79,38.19-89.79,88.76-89.79,88.76,37.5,88.76,89.79ZM1248.86,546.56c0-31.99-20.64-48.16-43-48.16s-43,16.17-43,48.16,20.64,48.16,43,48.16,43-16.17,43-48.16Z"/>
        <path class="st2" d="M1518.06,600.57c0,11.35.69,23.74,1.38,30.62h-43.69c-.69-3.44-1.72-11.7-1.72-19.61-7.57,13.42-24.77,23.74-47.47,23.74-48.16,0-82.56-37.84-82.56-89.1s33.37-88.41,81.19-88.41c29.24,0,43,12.04,47.82,20.99v-92.59h45.06v214.37ZM1432.06,594.38c23.39,0,41.63-17.89,41.63-48.51s-18.23-47.13-41.63-47.13-41.97,17.2-41.97,47.47,17.89,48.16,41.97,48.16Z"/>
        <path class="st2" d="M1595.41,697.93l39.9-88.07-71.9-147.92h51.26l45.06,99.07,41.62-99.07h48.85l-106.3,235.99h-48.51Z"/>
      </g>
      <path class="st2" d="M788.31,583.09c-6.66,8.6-16.95,14.04-32.16,14.04-22.71,0-41.63-16.17-42.66-38.53h121.09c0-.69.69-7.57.69-14.1,0-54.35-31.3-87.72-83.59-87.72-43.35,0-83.25,35.09-83.25,89.1,0,57.11,40.94,90.48,87.38,90.48,33.76,0,57.78-16.07,70.24-37.73l-37.74-15.52ZM752.37,493.93c26.15,0,37.15,16.51,37.84,33.37h-75.68c1.03-15.48,14.1-33.37,37.84-33.37Z"/>
      <path class="st2" d="M249.97,580.62c-8.66,8.67-20.63,14.04-33.82,14.04-26.38,0-47.83-21.46-47.83-47.83s21.46-47.83,47.83-47.83c13.2,0,25.16,5.37,33.82,14.04l29.81-29.81c-16.28-16.29-38.78-26.37-63.63-26.37-49.69,0-89.96,40.28-89.96,89.96s40.28,89.96,89.96,89.96c24.85,0,47.35-10.08,63.63-26.37l-29.81-29.81Z"/>
    </g>
    <g>
      <path class="st2" d="M1767.29,465.05v13.79h-3.32v-13.79h-5.34v-3.13h14.01v3.13h-5.35Z"/>
      <path class="st2" d="M1790.57,478.84v-11.86l-4.87,11.86h-2.75l-4.87-11.76v11.76h-3.15v-16.92h4.34l5.08,12.22,4.96-12.22h4.49v16.92h-3.24Z"/>
    </g>
  </g>
  <g>
    <path class="st0" d="M182.41,512.72c8.65-8.68,20.62-14.07,33.82-14.07s25.13,5.36,33.78,14.02l29.77-29.77c-16.26-16.27-38.73-26.33-63.55-26.33s-47.5,10.16-63.78,26.57l.03.03c.07-.07.13-.13.2-.2l29.74,29.74Z"/>
    <path class="st1" d="M182.37,580.58l.02-.02c-8.72-8.66-14.13-20.65-14.13-33.88s5.43-25.27,14.18-33.93l-.03-.03-29.74-29.74c-.07.07-.13.13-.2.2-16.24,16.26-26.29,38.71-26.29,63.5s10,47.13,26.17,63.38l29.75-29.75c.09.09.18.18.27.27Z"/>
    <path class="st3" d="M216.02,594.48c-13.11,0-25.01-5.31-33.65-13.9-.09-.09-.18-.18-.27-.27l-29.75,29.75-.02.02c16.27,16.35,38.8,26.47,63.69,26.47s47.29-10.06,63.55-26.33l-29.77-29.77c-8.65,8.66-20.6,14.02-33.78,14.02Z"/>
  </g>
</svg>